<?xml version="1.0" encoding="utf-8" standalone="no"?>
<!DOCTYPE svg PUBLIC "-//W3C//DTD SVG 1.1//EN"
  "http://www.w3.org/Graphics/SVG/1.1/DTD/svg11.dtd">
<!-- Created with matplotlib (https://matplotlib.org/) -->
<svg height="288pt" version="1.1" viewBox="0 0 432 288" width="432pt" xmlns="http://www.w3.org/2000/svg" xmlns:xlink="http://www.w3.org/1999/xlink">
 <defs>
  <style type="text/css">
*{stroke-linecap:butt;stroke-linejoin:round;}
  </style>
 </defs>
 <g id="figure_1">
  <g id="patch_1">
   <path d="M 0 288 
L 432 288 
L 432 0 
L 0 0 
z
" style="fill:#ffffff;"/>
  </g>
  <g id="axes_1">
   <g id="line2d_1">
    <path clip-path="url(#pbb6a7d3280)" d="M 86.220499 289 
L 87.812745 276.816918 
L 89.770067 264.372927 
L 91.72739 253.965381 
L 93.684712 245.125661 
L 95.642034 237.51865 
L 97.599357 230.89835 
L 99.556679 225.080104 
L 101.514002 219.922592 
L 103.471324 215.315822 
L 105.428647 211.172905 
L 107.385969 207.424286 
L 109.343291 204.013627 
L 112.279275 199.432664 
L 115.215259 195.386556 
L 118.151242 191.780667 
L 121.087226 188.541332 
L 124.02321 185.610342 
L 126.959193 182.941087 
L 130.873838 179.724951 
L 134.788483 176.836413 
L 138.703128 174.219883 
L 143.596434 171.265576 
L 148.48974 168.600792 
L 153.383046 166.173398 
L 159.255013 163.516701 
L 166.105642 160.701525 
L 172.95627 158.128502 
L 180.78556 155.417842 
L 190.572172 152.287164 
L 202.316106 148.789659 
L 218.953347 144.095645 
L 244.398538 136.915983 
L 256.142473 133.358526 
L 265.929085 130.150563 
L 273.758375 127.354776 
L 280.609003 124.685162 
L 286.48097 122.185468 
L 292.352938 119.441294 
L 297.246244 116.924415 
L 302.13955 114.150821 
L 306.054195 111.708912 
L 309.96884 109.0289 
L 313.883484 106.064207 
L 317.798129 102.755754 
L 320.734113 100.00384 
L 323.670096 96.975755 
L 326.60608 93.621374 
L 329.542064 89.877833 
L 332.478047 85.665191 
L 334.43537 82.546373 
L 336.392692 79.135714 
L 338.350015 75.387095 
L 340.307337 71.244178 
L 342.264659 66.637408 
L 344.221982 61.479896 
L 346.179304 55.66165 
L 348.136627 49.04135 
L 350.093949 41.434339 
L 352.051272 32.594619 
L 354.008594 22.187073 
L 355.965916 9.743082 
L 357.381352 -1 
L 357.381352 -1 
" style="fill:none;stroke:#0000ff;stroke-linecap:square;stroke-width:1.5;"/>
   </g>
   <g id="line2d_2">
    <path clip-path="url(#pbb6a7d3280)" d="M 69.218182 211.807753 
L 81.940778 210.38378 
L 93.684712 208.848089 
L 104.449985 207.207643 
L 114.236597 205.477018 
L 123.044548 203.680317 
L 130.873838 201.852704 
L 137.724467 200.04103 
L 144.575095 197.99487 
L 150.447062 196.023072 
L 156.31903 193.817816 
L 162.190997 191.34374 
L 167.084303 189.047945 
L 171.977609 186.512444 
L 176.870915 183.710554 
L 181.764221 180.615407 
L 186.657527 177.201893 
L 190.572172 174.227865 
L 195.465478 170.195444 
L 200.358784 165.812594 
L 205.25209 161.095865 
L 210.145396 156.084225 
L 216.996025 148.697988 
L 233.633265 130.475775 
L 239.505232 124.495599 
L 244.398538 119.843298 
L 249.291844 115.529855 
L 254.185151 111.567843 
L 259.078457 107.953042 
L 263.971763 104.669668 
L 268.865069 101.69499 
L 273.758375 99.002902 
L 278.651681 96.56643 
L 283.544987 94.359324 
L 289.416954 91.979073 
L 295.288921 89.855333 
L 301.160889 87.954301 
L 308.011517 85.979059 
L 314.862146 84.227732 
L 322.691435 82.458394 
L 331.499386 80.716186 
L 341.285998 79.035208 
L 352.051272 77.439063 
L 363.795206 75.942264 
L 373.581818 74.854121 
L 373.581818 74.854121 
" style="fill:none;stroke:#008000;stroke-linecap:square;stroke-width:1.5;"/>
   </g>
   <g id="line2d_3">
    <path clip-path="url(#pbb6a7d3280)" d="M 69.218182 228.0816 
L 373.581818 59.022 
L 373.581818 59.022 
" style="fill:none;stroke:#000000;stroke-linecap:square;stroke-width:1.5;"/>
   </g>
   <g id="line2d_4">
    <path clip-path="url(#pbb6a7d3280)" d="M 221.889331 252 
L 221.889331 34.56 
" style="fill:none;stroke:#1f77b4;stroke-linecap:square;stroke-width:1.5;"/>
   </g>
   <g id="line2d_5">
    <path clip-path="url(#pbb6a7d3280)" d="M 54 143.28 
L 388.8 143.28 
" style="fill:none;stroke:#1f77b4;stroke-linecap:square;stroke-width:1.5;"/>
   </g>
  </g>
 </g>
 <defs>
  <clipPath id="pbb6a7d3280">
   <rect height="217.44" width="334.8" x="54" y="34.56"/>
  </clipPath>
 </defs>
</svg>
