<?xml version="1.0" encoding="utf-8" standalone="no"?>
<!DOCTYPE svg PUBLIC "-//W3C//DTD SVG 1.1//EN"
  "http://www.w3.org/Graphics/SVG/1.1/DTD/svg11.dtd">
<!-- Created with matplotlib (https://matplotlib.org/) -->
<svg height="288pt" version="1.1" viewBox="0 0 432 288" width="432pt" xmlns="http://www.w3.org/2000/svg" xmlns:xlink="http://www.w3.org/1999/xlink">
 <defs>
  <style type="text/css">
*{stroke-linecap:butt;stroke-linejoin:round;}
  </style>
 </defs>
 <g id="figure_1">
  <g id="patch_1">
   <path d="M 0 288 
L 432 288 
L 432 0 
L 0 0 
z
" style="fill:#ffffff;"/>
  </g>
  <g id="axes_1">
   <g id="line2d_1">
    <path clip-path="url(#p9ae6109c17)" d="M 69.218182 143.279942 
L 218.32562 143.264694 
L 219.86281 143.039473 
L 221.4 141.147573 
L 222.93719 134.727133 
L 224.47438 130.600652 
L 226.01157 127.657884 
L 227.54876 125.230961 
L 230.62314 121.102735 
L 233.697521 117.634473 
L 236.771901 114.561511 
L 239.846281 111.763108 
L 242.920661 109.157692 
L 247.532231 105.56603 
L 252.143802 102.255213 
L 258.292562 98.15177 
L 264.441322 94.338561 
L 270.590083 90.74742 
L 279.813223 85.686273 
L 289.036364 80.930454 
L 298.259504 76.412394 
L 309.019835 71.380947 
L 321.317355 65.879203 
L 335.152066 59.946194 
L 348.986777 54.220817 
L 365.895868 47.451734 
L 373.581818 44.443636 
L 373.581818 44.443636 
" style="fill:none;stroke:#000000;stroke-linecap:square;stroke-width:1.5;"/>
   </g>
   <g id="line2d_2">
    <path clip-path="url(#p9ae6109c17)" d="M 69.218182 143.279942 
L 218.32562 143.294776 
L 219.86281 143.468846 
L 221.4 145.968239 
L 222.93719 152.071897 
L 224.47438 156.016735 
L 226.01157 158.902293 
L 227.54876 161.331911 
L 229.08595 163.4888 
L 232.160331 167.234039 
L 235.234711 170.482441 
L 238.309091 173.426896 
L 241.383471 176.125597 
L 245.995041 179.831027 
L 250.606612 183.229778 
L 256.755372 187.414777 
L 262.904132 191.287596 
L 269.052893 194.933119 
L 276.738843 199.22409 
L 285.961983 204.072778 
L 295.185124 208.663327 
L 304.408264 213.051506 
L 318.242975 219.326811 
L 330.540496 224.664428 
L 345.912397 231.083121 
L 362.821488 237.893812 
L 373.581818 242.116364 
L 373.581818 242.116364 
" style="fill:none;stroke:#000000;stroke-linecap:square;stroke-width:1.5;"/>
   </g>
   <g id="line2d_3">
    <path clip-path="url(#p9ae6109c17)" d="M 222.93719 142.03546 
L 224.47438 142.607423 
L 226.01157 142.918708 
L 227.54876 143.090773 
L 229.08595 143.245492 
L 230.62314 143.228581 
L 232.160331 143.259703 
L 233.697521 143.2687 
L 235.234711 143.275363 
L 236.771901 143.276438 
L 238.309091 143.277273 
L 239.846281 143.279117 
L 241.383471 143.279173 
L 242.920661 143.279535 
L 244.457851 143.279799 
L 245.995041 143.279832 
L 247.532231 143.279903 
L 249.069421 143.279894 
L 250.606612 143.279934 
L 252.143802 143.279904 
L 253.680992 143.27995 
L 255.218182 143.279932 
L 256.755372 143.279945 
L 258.292562 143.279936 
L 259.829752 143.279936 
L 261.366942 143.279946 
L 262.904132 143.279958 
L 264.441322 143.279933 
L 265.978512 143.279953 
L 267.515702 143.279978 
L 269.052893 143.279955 
L 270.590083 143.279933 
L 272.127273 143.279951 
L 273.664463 143.279969 
L 275.201653 143.279948 
L 276.738843 143.279948 
L 278.276033 143.279947 
L 279.813223 143.279946 
L 281.350413 143.279945 
L 282.887603 143.279948 
L 284.424793 143.279938 
L 285.961983 143.279938 
L 287.499174 143.279936 
L 289.036364 143.27994 
L 290.573554 143.27992 
L 292.110744 143.279935 
L 293.647934 143.27995 
L 295.185124 143.279938 
L 296.722314 143.279939 
L 298.259504 143.279931 
L 299.796694 143.279938 
L 301.333884 143.279935 
L 302.871074 143.27994 
L 304.408264 143.279952 
L 305.945455 143.279953 
L 307.482645 143.279933 
L 309.019835 143.27994 
L 310.557025 143.279957 
L 312.094215 143.27994 
L 313.631405 143.279944 
L 315.168595 143.279953 
L 316.705785 143.27994 
L 318.242975 143.27994 
L 319.780165 143.279938 
L 321.317355 143.279939 
L 322.854545 143.279954 
L 324.391736 143.279939 
L 325.928926 143.27994 
L 327.466116 143.279933 
L 329.003306 143.27994 
L 330.540496 143.279925 
L 332.077686 143.279934 
L 333.614876 143.27994 
L 335.152066 143.279949 
L 336.689256 143.279939 
L 338.226446 143.279938 
L 339.763636 143.279945 
L 341.300826 143.279937 
L 342.838017 143.279937 
L 344.375207 143.279941 
L 345.912397 143.279946 
L 347.449587 143.279938 
L 348.986777 143.279941 
L 350.523967 143.279939 
L 352.061157 143.279941 
L 353.598347 143.279954 
L 355.135537 143.279939 
L 356.672727 143.279946 
L 358.209917 143.279941 
L 359.747107 143.27994 
L 361.284298 143.279956 
L 362.821488 143.279949 
L 364.358678 143.279941 
L 365.895868 143.279945 
L 367.433058 143.279941 
L 368.970248 143.279941 
L 370.507438 143.279941 
L 372.044628 143.279941 
" style="fill:none;stroke:#000000;stroke-dasharray:5.55,2.4;stroke-dashoffset:0;stroke-width:1.5;"/>
   </g>
   <g id="line2d_4">
    <path clip-path="url(#p9ae6109c17)" d="M 221.4 252 
L 221.4 34.56 
" style="fill:none;stroke:#1f77b4;stroke-linecap:square;stroke-width:1.5;"/>
   </g>
  </g>
 </g>
 <defs>
  <clipPath id="p9ae6109c17">
   <rect height="217.44" width="334.8" x="54" y="34.56"/>
  </clipPath>
 </defs>
</svg>
