<?xml version="1.0" encoding="utf-8" standalone="no"?>
<!DOCTYPE svg PUBLIC "-//W3C//DTD SVG 1.1//EN"
  "http://www.w3.org/Graphics/SVG/1.1/DTD/svg11.dtd">
<!-- Created with matplotlib (https://matplotlib.org/) -->
<svg height="288pt" version="1.1" viewBox="0 0 432 288" width="432pt" xmlns="http://www.w3.org/2000/svg" xmlns:xlink="http://www.w3.org/1999/xlink">
 <defs>
  <style type="text/css">
*{stroke-linecap:butt;stroke-linejoin:round;}
  </style>
 </defs>
 <g id="figure_1">
  <g id="patch_1">
   <path d="M 0 288 
L 432 288 
L 432 0 
L 0 0 
z
" style="fill:#ffffff;"/>
  </g>
  <g id="axes_1">
   <g id="line2d_1">
    <path clip-path="url(#pb04cd114f5)" d="M 69.218182 201.264 
L 75.336044 201.727872 
L 81.453906 201.959808 
L 87.571768 201.959808 
L 93.68963 201.727872 
L 99.807492 201.264 
L 105.925354 200.568192 
L 112.043216 199.640448 
L 118.161078 198.480768 
L 124.27894 197.089152 
L 130.396802 195.4656 
L 136.514664 193.610112 
L 142.632526 191.522688 
L 148.750388 189.203328 
L 154.86825 186.652032 
L 160.986112 183.8688 
L 167.103974 180.853632 
L 173.221836 177.606528 
L 179.339698 174.127488 
L 185.457561 170.416512 
L 191.575423 166.4736 
L 197.693285 162.298752 
L 203.811147 157.891968 
L 209.929009 153.253248 
L 216.046871 148.382592 
L 222.164733 143.28 
L 229.81206 136.5756 
L 237.459388 129.5088 
L 245.106715 122.0796 
L 252.754043 114.288 
L 260.40137 106.134 
L 268.048698 97.6176 
L 275.696026 88.7388 
L 283.343353 79.4976 
L 290.990681 69.894 
L 298.638008 59.928 
L 306.285336 49.5996 
L 313.932663 38.9088 
L 321.579991 27.8556 
L 329.227318 16.44 
L 336.874646 4.662 
L 340.468575 -1 
L 340.468575 -1 
" style="fill:none;stroke:#0000ff;stroke-linecap:square;stroke-width:1.5;"/>
   </g>
   <g id="line2d_2">
    <path clip-path="url(#pb04cd114f5)" d="M 98.278026 208.512 
L 99.807492 201.264 
L 101.336958 198.26178 
L 102.866423 195.958096 
L 104.395889 194.016 
L 107.45482 190.758098 
L 110.513751 188.01156 
L 113.572682 185.591812 
L 116.631613 183.404191 
L 121.220009 180.440617 
L 125.808406 177.76134 
L 131.926268 174.515867 
L 138.04413 171.554307 
L 144.161992 168.813069 
L 151.809319 165.632254 
L 160.986112 162.102156 
L 170.162905 158.822215 
L 180.869164 155.250295 
L 191.575423 151.90331 
L 203.811147 148.30559 
L 217.576336 144.499397 
L 232.870991 140.519733 
L 249.695112 136.395311 
L 268.048698 132.149582 
L 287.93175 127.801688 
L 309.344267 123.367279 
L 332.286249 118.859191 
L 356.757698 114.288 
L 373.581818 111.269876 
L 373.581818 111.269876 
" style="fill:none;stroke:#008000;stroke-linecap:square;stroke-width:1.5;"/>
   </g>
   <g id="line2d_3">
    <path clip-path="url(#pb04cd114f5)" d="M 98.278026 208.512 
L 99.807492 215.76 
L 101.336958 218.76222 
L 102.866423 221.065904 
L 104.395889 223.008 
L 107.45482 226.265902 
L 110.513751 229.01244 
L 113.572682 231.432188 
L 116.631613 233.619809 
L 121.220009 236.583383 
L 125.808406 239.26266 
L 131.926268 242.508133 
L 138.04413 245.469693 
L 144.161992 248.210931 
L 151.809319 251.391746 
L 160.986112 254.921844 
L 170.162905 258.201785 
L 180.869164 261.773705 
L 191.575423 265.12069 
L 203.811147 268.71841 
L 217.576336 272.524603 
L 232.870991 276.504267 
L 249.695112 280.628689 
L 268.048698 284.874418 
L 286.889078 289 
L 286.889078 289 
" style="fill:none;stroke:#008000;stroke-linecap:square;stroke-width:1.5;"/>
   </g>
   <g id="line2d_4">
    <path clip-path="url(#pb04cd114f5)" d="M 69.218182 215.76 
L 373.581818 71.5248 
L 373.581818 71.5248 
" style="fill:none;stroke:#000000;stroke-linecap:square;stroke-width:1.5;"/>
   </g>
   <g id="line2d_5">
    <path clip-path="url(#pb04cd114f5)" d="M 54 143.28 
L 388.8 143.28 
" style="fill:none;stroke:#1f77b4;stroke-linecap:square;stroke-width:1.5;"/>
   </g>
   <g id="line2d_6">
    <path clip-path="url(#pb04cd114f5)" d="M 222.164733 252 
L 222.164733 34.56 
" style="fill:none;stroke:#1f77b4;stroke-linecap:square;stroke-width:1.5;"/>
   </g>
  </g>
 </g>
 <defs>
  <clipPath id="pb04cd114f5">
   <rect height="217.44" width="334.8" x="54" y="34.56"/>
  </clipPath>
 </defs>
</svg>
