<?xml version="1.0" encoding="utf-8" standalone="no"?>
<!DOCTYPE svg PUBLIC "-//W3C//DTD SVG 1.1//EN"
  "http://www.w3.org/Graphics/SVG/1.1/DTD/svg11.dtd">
<!-- Created with matplotlib (https://matplotlib.org/) -->
<svg height="288pt" version="1.1" viewBox="0 0 432 288" width="432pt" xmlns="http://www.w3.org/2000/svg" xmlns:xlink="http://www.w3.org/1999/xlink">
 <defs>
  <style type="text/css">
*{stroke-linecap:butt;stroke-linejoin:round;}
  </style>
 </defs>
 <g id="figure_1">
  <g id="patch_1">
   <path d="M 0 288 
L 432 288 
L 432 0 
L 0 0 
z
" style="fill:#ffffff;"/>
  </g>
  <g id="axes_1">
   <g id="line2d_1">
    <path clip-path="url(#pc7b47230be)" d="M 118.089828 289 
L 120.108565 282.192735 
L 123.044548 273.108479 
L 125.980532 264.852737 
L 128.916516 257.304116 
L 131.852499 250.363522 
L 134.788483 243.94924 
L 137.724467 237.993265 
L 140.66045 232.43852 
L 144.575095 225.573942 
L 148.48974 219.242375 
L 152.404385 213.365967 
L 156.31903 207.880405 
L 160.233674 202.732015 
L 165.12698 196.702435 
L 170.020286 191.055673 
L 174.913593 185.730608 
L 180.78556 179.693525 
L 186.657527 173.971889 
L 193.508156 167.612579 
L 201.337445 160.659635 
L 211.124057 152.285753 
L 245.3772 123.3258 
L 253.206489 116.258508 
L 260.057118 109.762582 
L 265.929085 103.89169 
L 271.801052 97.66989 
L 276.694358 92.158535 
L 281.587664 86.290156 
L 285.502309 81.292933 
L 289.416954 75.982094 
L 293.331599 70.308425 
L 297.246244 64.213245 
L 301.160889 57.625888 
L 304.096872 52.311338 
L 307.032856 46.628611 
L 309.96884 40.526699 
L 312.904823 33.945148 
L 315.840807 26.81173 
L 318.77679 19.039399 
L 321.712774 10.522246 
L 324.648758 1.13007 
L 325.270647 -1 
L 325.270647 -1 
" style="fill:none;stroke:#0000ff;stroke-linecap:square;stroke-width:1.5;"/>
   </g>
   <g id="line2d_2">
    <path clip-path="url(#pc7b47230be)" d="M 69.218182 187.03999 
L 82.919439 184.485302 
L 95.642034 181.890332 
L 108.36463 179.063447 
L 120.108565 176.235079 
L 131.852499 173.187012 
L 143.596434 169.91408 
L 155.340368 166.416837 
L 168.062964 162.384539 
L 180.78556 158.120753 
L 195.465478 152.961132 
L 215.038702 145.814961 
L 251.249167 132.549577 
L 265.929085 127.436409 
L 278.651681 123.223359 
L 291.374277 119.248118 
L 303.118211 115.806522 
L 314.862146 112.590008 
L 326.60608 109.597534 
L 338.350015 106.822778 
L 351.07261 104.050842 
L 363.795206 101.507024 
L 373.581818 99.694688 
L 373.581818 99.694688 
" style="fill:none;stroke:#008000;stroke-linecap:square;stroke-width:1.5;"/>
   </g>
   <g id="line2d_3">
    <path clip-path="url(#pc7b47230be)" d="M 69.218182 228.0816 
L 373.581818 59.022 
L 373.581818 59.022 
" style="fill:none;stroke:#000000;stroke-linecap:square;stroke-width:1.5;"/>
   </g>
   <g id="line2d_4">
    <path clip-path="url(#pc7b47230be)" d="M 221.889331 252 
L 221.889331 34.56 
" style="fill:none;stroke:#1f77b4;stroke-linecap:square;stroke-width:1.5;"/>
   </g>
   <g id="line2d_5">
    <path clip-path="url(#pc7b47230be)" d="M 54 143.28 
L 388.8 143.28 
" style="fill:none;stroke:#1f77b4;stroke-linecap:square;stroke-width:1.5;"/>
   </g>
  </g>
 </g>
 <defs>
  <clipPath id="pc7b47230be">
   <rect height="217.44" width="334.8" x="54" y="34.56"/>
  </clipPath>
 </defs>
</svg>
