<?xml version="1.0" encoding="utf-8" standalone="no"?>
<!DOCTYPE svg PUBLIC "-//W3C//DTD SVG 1.1//EN"
  "http://www.w3.org/Graphics/SVG/1.1/DTD/svg11.dtd">
<!-- Created with matplotlib (https://matplotlib.org/) -->
<svg height="288pt" version="1.1" viewBox="0 0 432 288" width="432pt" xmlns="http://www.w3.org/2000/svg" xmlns:xlink="http://www.w3.org/1999/xlink">
 <defs>
  <style type="text/css">
*{stroke-linecap:butt;stroke-linejoin:round;}
  </style>
 </defs>
 <g id="figure_1">
  <g id="patch_1">
   <path d="M 0 288 
L 432 288 
L 432 0 
L 0 0 
z
" style="fill:#ffffff;"/>
  </g>
  <g id="axes_1">
   <g id="line2d_1">
    <path clip-path="url(#p6de66057d9)" d="M 69.218182 206.165447 
L 80.660424 205.364292 
L 90.577033 204.458681 
L 99.730827 203.402283 
L 108.121805 202.20568 
L 115.749966 200.891003 
L 122.615311 199.491925 
L 129.480656 197.858276 
L 135.583185 196.184409 
L 141.685714 194.278792 
L 147.788243 192.119478 
L 153.127956 190.005543 
L 158.467669 187.668811 
L 163.807382 185.098732 
L 169.147095 182.287562 
L 174.486808 179.231184 
L 179.826521 175.929934 
L 185.166234 172.389363 
L 191.268763 168.064831 
L 197.371292 163.469755 
L 204.236637 158.024281 
L 212.627614 151.070482 
L 242.377444 126.083225 
L 249.242789 120.760998 
L 255.345318 116.297146 
L 261.447847 112.118673 
L 266.78756 108.71385 
L 272.127273 105.552198 
L 277.466986 102.636201 
L 282.806699 99.963553 
L 288.146411 97.527963 
L 293.486124 95.319982 
L 298.825837 93.327812 
L 304.928366 91.298045 
L 311.030895 89.511078 
L 317.133424 87.944762 
L 323.99877 86.419076 
L 330.864115 85.114804 
L 338.492276 83.891183 
L 346.883254 82.779109 
L 356.037047 81.798644 
L 365.953657 80.9591 
L 373.581818 80.441087 
L 373.581818 80.441087 
" style="fill:none;stroke:#0000ff;stroke-linecap:square;stroke-width:1.5;"/>
   </g>
   <g id="line2d_2">
    <path clip-path="url(#p6de66057d9)" d="M 108.121805 267.230445 
L 108.884621 252.085808 
L 109.647437 243.196286 
L 110.410253 236.867591 
L 111.173069 231.941974 
L 111.935885 227.903741 
L 113.461517 221.499958 
L 114.98715 216.498481 
L 116.512782 212.383602 
L 118.038414 208.880223 
L 119.564046 205.824127 
L 121.852495 201.856503 
L 124.140943 198.435366 
L 126.429392 195.419835 
L 128.71784 192.717105 
L 131.769105 189.491459 
L 134.820369 186.603402 
L 138.63445 183.359758 
L 142.44853 180.433818 
L 147.025427 177.248151 
L 151.602324 174.341189 
L 156.942037 171.225351 
L 163.044566 167.948363 
L 169.909911 164.540757 
L 177.538072 161.017657 
L 186.691866 157.059689 
L 197.371292 152.702155 
L 211.864798 147.058439 
L 249.242789 132.635263 
L 259.922215 128.208208 
L 268.313192 124.510106 
L 275.941353 120.911624 
L 282.806699 117.413684 
L 288.909228 114.031357 
L 294.248941 110.796094 
L 298.825837 107.758292 
L 302.639918 104.989081 
L 306.453999 101.945553 
L 309.505263 99.261843 
L 312.556528 96.297214 
L 315.607792 92.972322 
L 317.896241 90.173606 
L 320.184689 87.035027 
L 322.473137 83.450616 
L 323.99877 80.735873 
L 325.524402 77.679777 
L 327.050034 74.176398 
L 328.575666 70.061519 
L 330.101299 65.060042 
L 330.864115 62.082197 
L 331.626931 58.656259 
L 332.389747 54.618026 
L 333.152563 49.692409 
L 333.915379 43.363714 
L 334.678195 34.474192 
L 334.678195 34.474192 
" style="fill:none;stroke:#008000;stroke-linecap:square;stroke-width:1.5;"/>
   </g>
   <g id="line2d_3">
    <path clip-path="url(#p6de66057d9)" d="M 69.218182 230.256 
L 373.581818 56.73888 
L 373.581818 56.73888 
" style="fill:none;stroke:#000000;stroke-linecap:square;stroke-width:1.5;"/>
   </g>
   <g id="line2d_4">
    <path clip-path="url(#p6de66057d9)" d="M 54 143.28 
L 388.8 143.28 
" style="fill:none;stroke:#1f77b4;stroke-linecap:square;stroke-width:1.5;"/>
   </g>
   <g id="line2d_5">
    <path clip-path="url(#p6de66057d9)" d="M 221.781408 252 
L 221.781408 34.56 
" style="fill:none;stroke:#1f77b4;stroke-linecap:square;stroke-width:1.5;"/>
   </g>
  </g>
 </g>
 <defs>
  <clipPath id="p6de66057d9">
   <rect height="217.44" width="334.8" x="54" y="34.56"/>
  </clipPath>
 </defs>
</svg>
