<?xml version="1.0" encoding="utf-8" standalone="no"?>
<!DOCTYPE svg PUBLIC "-//W3C//DTD SVG 1.1//EN"
  "http://www.w3.org/Graphics/SVG/1.1/DTD/svg11.dtd">
<!-- Created with matplotlib (https://matplotlib.org/) -->
<svg height="288pt" version="1.1" viewBox="0 0 432 288" width="432pt" xmlns="http://www.w3.org/2000/svg" xmlns:xlink="http://www.w3.org/1999/xlink">
 <defs>
  <style type="text/css">
*{stroke-linecap:butt;stroke-linejoin:round;}
  </style>
 </defs>
 <g id="figure_1">
  <g id="patch_1">
   <path d="M 0 288 
L 432 288 
L 432 0 
L 0 0 
z
" style="fill:#ffffff;"/>
  </g>
  <g id="axes_1">
   <g id="line2d_1">
    <path clip-path="url(#p0779107316)" d="M 69.218182 85.296 
L 76.865509 91.638 
L 82.983371 96.450672 
L 89.101233 101.031408 
L 95.219095 105.380208 
L 101.336958 109.497072 
L 107.45482 113.382 
L 113.572682 117.034992 
L 119.690544 120.456048 
L 125.808406 123.645168 
L 131.926268 126.602352 
L 138.04413 129.3276 
L 144.161992 131.820912 
L 150.279854 134.082288 
L 156.397716 136.111728 
L 162.515578 137.909232 
L 168.63344 139.4748 
L 174.751302 140.808432 
L 180.869164 141.910128 
L 186.987026 142.779888 
L 193.104888 143.417712 
L 199.22275 143.8236 
L 205.340612 143.997552 
L 211.458474 143.939568 
L 217.576336 143.649648 
L 223.694198 143.127792 
L 229.81206 142.374 
L 235.929922 141.388272 
L 242.047784 140.170608 
L 248.165646 138.721008 
L 254.283508 137.039472 
L 260.40137 135.126 
L 266.519233 132.980592 
L 272.637095 130.603248 
L 278.754957 127.993968 
L 284.872819 125.152752 
L 290.990681 122.0796 
L 297.108543 118.774512 
L 303.226405 115.237488 
L 309.344267 111.468528 
L 315.462129 107.467632 
L 321.579991 103.2348 
L 327.697853 98.770032 
L 333.815715 94.073328 
L 339.933577 89.144688 
L 346.051439 83.984112 
L 353.698767 77.207232 
L 361.346094 70.067952 
L 368.993422 62.566272 
L 373.581818 57.891312 
L 373.581818 57.891312 
" style="fill:none;stroke:#0000ff;stroke-linecap:square;stroke-width:1.5;"/>
   </g>
   <g id="line2d_2">
    <path clip-path="url(#p0779107316)" d="M 220.635267 150.528 
L 222.164733 143.28 
L 223.694198 140.27778 
L 225.223664 137.974096 
L 226.753129 136.032 
L 228.282595 134.320979 
L 229.81206 132.774098 
L 231.341526 131.351594 
L 232.870991 130.02756 
L 234.400457 128.784 
L 235.929922 127.607812 
L 237.459388 126.489104 
L 238.988853 125.420191 
L 240.518319 124.394964 
L 242.047784 123.408467 
L 243.57725 122.456617 
L 245.106715 121.536 
L 246.636181 120.64373 
L 248.165646 119.77734 
L 249.695112 118.9347 
L 251.224577 118.113959 
L 252.754043 117.313491 
L 254.283508 116.531867 
L 255.812974 115.767813 
L 257.342439 115.020197 
L 258.871905 114.288 
L 260.40137 113.570307 
L 261.930836 112.866287 
L 263.460302 112.175189 
L 264.989767 111.496325 
L 266.519233 110.829069 
L 268.048698 110.172844 
L 269.578164 109.52712 
L 271.107629 108.89141 
L 272.637095 108.265261 
L 274.16656 107.648254 
L 275.696026 107.04 
L 277.225491 106.440137 
L 278.754957 105.848327 
L 280.284422 105.264255 
L 281.813888 104.687623 
L 283.343353 104.118156 
L 284.872819 103.555591 
L 286.402284 102.999686 
L 287.93175 102.450207 
L 289.461215 101.906938 
L 290.990681 101.369672 
L 292.520146 100.838215 
L 294.049612 100.312383 
L 295.579077 99.792 
L 297.108543 99.2769 
L 298.638008 98.766927 
L 300.167474 98.261929 
L 301.696939 97.761764 
L 303.226405 97.266295 
L 304.75587 96.775393 
L 306.285336 96.288935 
L 307.814801 95.8068 
L 309.344267 95.328877 
L 310.873732 94.855056 
L 312.403198 94.385233 
L 313.932663 93.91931 
L 315.462129 93.457191 
L 316.991594 92.998783 
L 318.52106 92.544 
L 320.050525 92.092756 
L 321.579991 91.64497 
L 323.109456 91.200563 
L 324.638922 90.759461 
L 326.168387 90.32159 
L 327.697853 89.886881 
L 329.227318 89.455266 
L 330.756784 89.026681 
L 332.286249 88.601061 
L 333.815715 88.178346 
L 335.34518 87.758479 
L 336.874646 87.341401 
L 338.404111 86.927058 
L 339.933577 86.515397 
L 341.463042 86.106367 
L 342.992508 85.699917 
L 344.521974 85.296 
L 346.051439 84.894569 
L 347.580905 84.495577 
L 349.11037 84.098983 
L 350.639836 83.704742 
L 352.169301 83.312813 
L 353.698767 82.923157 
L 355.228232 82.535733 
L 356.757698 82.150505 
L 358.287163 81.767435 
L 359.816629 81.386487 
L 361.346094 81.007626 
L 362.87556 80.630819 
L 364.405025 80.256033 
L 365.934491 79.883235 
L 367.463956 79.512393 
L 368.993422 79.143479 
L 370.522887 78.776461 
L 372.052353 78.411311 
L 373.581818 78.048 
" style="fill:none;stroke:#008000;stroke-linecap:square;stroke-width:1.5;"/>
   </g>
   <g id="line2d_3">
    <path clip-path="url(#p0779107316)" d="M 220.635267 150.528 
L 222.164733 157.776 
L 223.694198 160.77822 
L 225.223664 163.081904 
L 226.753129 165.024 
L 228.282595 166.735021 
L 229.81206 168.281902 
L 231.341526 169.704406 
L 232.870991 171.02844 
L 234.400457 172.272 
L 235.929922 173.448188 
L 237.459388 174.566896 
L 238.988853 175.635809 
L 240.518319 176.661036 
L 242.047784 177.647533 
L 243.57725 178.599383 
L 245.106715 179.52 
L 246.636181 180.41227 
L 248.165646 181.27866 
L 249.695112 182.1213 
L 251.224577 182.942041 
L 252.754043 183.742509 
L 254.283508 184.524133 
L 255.812974 185.288187 
L 257.342439 186.035803 
L 258.871905 186.768 
L 260.40137 187.485693 
L 261.930836 188.189713 
L 263.460302 188.880811 
L 264.989767 189.559675 
L 266.519233 190.226931 
L 268.048698 190.883156 
L 269.578164 191.52888 
L 271.107629 192.16459 
L 272.637095 192.790739 
L 274.16656 193.407746 
L 275.696026 194.016 
L 277.225491 194.615863 
L 278.754957 195.207673 
L 280.284422 195.791745 
L 281.813888 196.368377 
L 283.343353 196.937844 
L 284.872819 197.500409 
L 286.402284 198.056314 
L 287.93175 198.605793 
L 289.461215 199.149062 
L 290.990681 199.686328 
L 292.520146 200.217785 
L 294.049612 200.743617 
L 295.579077 201.264 
L 297.108543 201.7791 
L 298.638008 202.289073 
L 300.167474 202.794071 
L 301.696939 203.294236 
L 303.226405 203.789705 
L 304.75587 204.280607 
L 306.285336 204.767065 
L 307.814801 205.2492 
L 309.344267 205.727123 
L 310.873732 206.200944 
L 312.403198 206.670767 
L 313.932663 207.13669 
L 315.462129 207.598809 
L 316.991594 208.057217 
L 318.52106 208.512 
L 320.050525 208.963244 
L 321.579991 209.41103 
L 323.109456 209.855437 
L 324.638922 210.296539 
L 326.168387 210.73441 
L 327.697853 211.169119 
L 329.227318 211.600734 
L 330.756784 212.029319 
L 332.286249 212.454939 
L 333.815715 212.877654 
L 335.34518 213.297521 
L 336.874646 213.714599 
L 338.404111 214.128942 
L 339.933577 214.540603 
L 341.463042 214.949633 
L 342.992508 215.356083 
L 344.521974 215.76 
L 346.051439 216.161431 
L 347.580905 216.560423 
L 349.11037 216.957017 
L 350.639836 217.351258 
L 352.169301 217.743187 
L 353.698767 218.132843 
L 355.228232 218.520267 
L 356.757698 218.905495 
L 358.287163 219.288565 
L 359.816629 219.669513 
L 361.346094 220.048374 
L 362.87556 220.425181 
L 364.405025 220.799967 
L 365.934491 221.172765 
L 367.463956 221.543607 
L 368.993422 221.912521 
L 370.522887 222.279539 
L 372.052353 222.644689 
L 373.581818 223.008 
" style="fill:none;stroke:#008000;stroke-linecap:square;stroke-width:1.5;"/>
   </g>
   <g id="line2d_4">
    <path clip-path="url(#p0779107316)" d="M 69.218182 215.76 
L 373.581818 71.5248 
L 373.581818 71.5248 
" style="fill:none;stroke:#000000;stroke-linecap:square;stroke-width:1.5;"/>
   </g>
   <g id="line2d_5">
    <path clip-path="url(#p0779107316)" d="M 54 143.28 
L 388.8 143.28 
" style="fill:none;stroke:#1f77b4;stroke-linecap:square;stroke-width:1.5;"/>
   </g>
   <g id="line2d_6">
    <path clip-path="url(#p0779107316)" d="M 222.164733 252 
L 222.164733 34.56 
" style="fill:none;stroke:#1f77b4;stroke-linecap:square;stroke-width:1.5;"/>
   </g>
  </g>
 </g>
 <defs>
  <clipPath id="p0779107316">
   <rect height="217.44" width="334.8" x="54" y="34.56"/>
  </clipPath>
 </defs>
</svg>
