<?xml version="1.0" encoding="utf-8" standalone="no"?>
<!DOCTYPE svg PUBLIC "-//W3C//DTD SVG 1.1//EN"
  "http://www.w3.org/Graphics/SVG/1.1/DTD/svg11.dtd">
<!-- Created with matplotlib (https://matplotlib.org/) -->
<svg height="288pt" version="1.1" viewBox="0 0 432 288" width="432pt" xmlns="http://www.w3.org/2000/svg" xmlns:xlink="http://www.w3.org/1999/xlink">
 <defs>
  <style type="text/css">
*{stroke-linecap:butt;stroke-linejoin:round;}
  </style>
 </defs>
 <g id="figure_1">
  <g id="patch_1">
   <path d="M 0 288 
L 432 288 
L 432 0 
L 0 0 
z
" style="fill:#ffffff;"/>
  </g>
  <g id="axes_1">
   <g id="line2d_1">
    <path clip-path="url(#pe0ed7771c5)" d="M 69.218182 185.203631 
L 82.948872 184.543085 
L 95.15393 183.733285 
L 105.833356 182.797444 
L 114.98715 181.782172 
L 123.378127 180.641695 
L 131.006288 179.400214 
L 138.63445 177.934637 
L 145.499795 176.400207 
L 152.36514 174.640599 
L 159.230485 172.637439 
L 165.333014 170.640265 
L 171.435543 168.431868 
L 177.538072 166.009674 
L 184.403418 163.032964 
L 191.268763 159.80322 
L 198.896924 155.948603 
L 207.287902 151.444707 
L 218.730144 145.018593 
L 237.800547 134.279441 
L 246.191524 129.820163 
L 253.819686 126.018289 
L 260.685031 122.843023 
L 267.550376 119.924788 
L 273.652905 117.556005 
L 279.755434 115.400845 
L 286.620779 113.226771 
L 293.486124 111.306655 
L 300.35147 109.624274 
L 307.216815 108.160443 
L 314.844976 106.765119 
L 323.235954 105.478085 
L 331.626931 104.414873 
L 340.780725 103.470195 
L 351.46015 102.60093 
L 363.665208 101.849902 
L 373.581818 101.387391 
L 373.581818 101.387391 
" style="fill:none;stroke:#0000ff;stroke-linecap:square;stroke-width:1.5;"/>
   </g>
   <g id="line2d_2">
    <path clip-path="url(#pe0ed7771c5)" d="M 146.262611 258.37762 
L 147.025427 243.196286 
L 147.788243 234.269756 
L 148.551059 227.903741 
L 149.313876 222.940484 
L 150.076692 218.86429 
L 151.602324 212.383602 
L 153.127956 207.303881 
L 154.653589 203.109384 
L 156.179221 199.524973 
L 157.704853 196.386394 
L 159.993301 192.292238 
L 162.28175 188.741074 
L 164.570198 185.59187 
L 167.621463 181.861852 
L 170.672727 178.537597 
L 173.723992 175.522705 
L 177.538072 172.089178 
L 181.352153 168.944233 
L 185.92905 165.461939 
L 191.268763 161.703645 
L 197.371292 157.702669 
L 204.236637 153.464432 
L 213.390431 148.083115 
L 241.614627 131.707478 
L 248.479973 127.387582 
L 254.582502 123.280013 
L 259.922215 119.391774 
L 264.499111 115.75935 
L 268.313192 112.450428 
L 271.364457 109.56381 
L 274.415721 106.4041 
L 277.466986 102.891504 
L 279.755434 99.956598 
L 282.043882 96.685579 
L 284.332331 92.972322 
L 285.857963 90.173606 
L 287.383595 87.035027 
L 288.909228 83.450616 
L 290.43486 79.256119 
L 291.960492 74.176398 
L 293.486124 67.69571 
L 294.248941 63.619516 
L 295.011757 58.656259 
L 295.774573 52.290244 
L 296.537389 43.363714 
L 296.537389 43.363714 
" style="fill:none;stroke:#008000;stroke-linecap:square;stroke-width:1.5;"/>
   </g>
   <g id="line2d_3">
    <path clip-path="url(#pe0ed7771c5)" d="M 69.218182 230.256 
L 373.581818 56.73888 
L 373.581818 56.73888 
" style="fill:none;stroke:#000000;stroke-linecap:square;stroke-width:1.5;"/>
   </g>
   <g id="line2d_4">
    <path clip-path="url(#pe0ed7771c5)" d="M 54 143.28 
L 388.8 143.28 
" style="fill:none;stroke:#1f77b4;stroke-linecap:square;stroke-width:1.5;"/>
   </g>
   <g id="line2d_5">
    <path clip-path="url(#pe0ed7771c5)" d="M 221.781408 252 
L 221.781408 34.56 
" style="fill:none;stroke:#1f77b4;stroke-linecap:square;stroke-width:1.5;"/>
   </g>
  </g>
 </g>
 <defs>
  <clipPath id="pe0ed7771c5">
   <rect height="217.44" width="334.8" x="54" y="34.56"/>
  </clipPath>
 </defs>
</svg>
