<?xml version="1.0" encoding="utf-8" standalone="no"?>
<!DOCTYPE svg PUBLIC "-//W3C//DTD SVG 1.1//EN"
  "http://www.w3.org/Graphics/SVG/1.1/DTD/svg11.dtd">
<!-- Created with matplotlib (https://matplotlib.org/) -->
<svg height="288pt" version="1.1" viewBox="0 0 432 288" width="432pt" xmlns="http://www.w3.org/2000/svg" xmlns:xlink="http://www.w3.org/1999/xlink">
 <defs>
  <style type="text/css">
*{stroke-linecap:butt;stroke-linejoin:round;}
  </style>
 </defs>
 <g id="figure_1">
  <g id="patch_1">
   <path d="M 0 288 
L 432 288 
L 432 0 
L 0 0 
z
" style="fill:#ffffff;"/>
  </g>
  <g id="axes_1">
   <g id="line2d_1">
    <path clip-path="url(#ped3c1ddc85)" d="M 69.218182 164.241816 
L 88.288585 163.74927 
L 103.544908 163.149352 
L 116.512782 162.435404 
L 127.955024 161.601045 
L 138.63445 160.607318 
L 148.551059 159.463556 
L 157.704853 158.192232 
L 166.858647 156.694076 
L 176.01244 154.957606 
L 185.166234 152.983121 
L 194.320027 150.786334 
L 204.999453 147.987969 
L 219.49296 143.932124 
L 240.851811 137.954489 
L 251.531237 135.205143 
L 260.685031 133.061512 
L 269.838824 131.145713 
L 278.992618 129.469321 
L 288.146411 128.029321 
L 297.300205 126.811914 
L 307.216815 125.720221 
L 317.896241 124.774462 
L 329.338483 123.982328 
L 342.306357 123.30592 
L 357.562679 122.738549 
L 373.581818 122.333696 
L 373.581818 122.333696 
" style="fill:none;stroke:#0000ff;stroke-linecap:square;stroke-width:1.5;"/>
   </g>
   <g id="line2d_2">
    <path clip-path="url(#ped3c1ddc85)" d="M 184.403418 243.196286 
L 185.166234 227.903741 
L 185.92905 218.86429 
L 186.691866 212.383602 
L 187.454682 207.303881 
L 188.217498 203.109384 
L 188.980314 199.524973 
L 189.743131 196.386394 
L 190.505947 193.587678 
L 191.268763 191.056451 
L 192.031579 188.741074 
L 192.794395 186.603402 
L 193.557211 184.614447 
L 194.320027 182.751665 
L 195.082843 180.997165 
L 195.84566 179.336511 
L 196.608476 177.757879 
L 197.371292 176.25146 
L 198.134108 174.809021 
L 198.896924 173.423585 
L 199.65974 172.089178 
L 200.422556 170.80065 
L 201.185373 169.553519 
L 201.948189 168.343863 
L 202.711005 167.168226 
L 203.473821 166.02354 
L 204.236637 164.907073 
L 204.999453 163.816373 
L 205.762269 162.749231 
L 206.525085 161.703645 
L 207.287902 160.677794 
L 208.050718 159.670014 
L 208.813534 158.678776 
L 209.57635 157.702669 
L 210.339166 156.740389 
L 211.101982 155.790718 
L 211.864798 154.852522 
L 212.627614 153.924737 
L 213.390431 153.006357 
L 214.153247 152.096433 
L 214.916063 151.194063 
L 215.678879 150.298385 
L 216.441695 149.408571 
L 217.204511 148.523828 
L 217.967327 147.643384 
L 218.730144 146.766491 
L 219.49296 145.892418 
L 220.255776 145.020449 
L 221.018592 144.149876 
L 221.781408 143.28 
L 222.544224 142.410124 
L 223.30704 141.539551 
L 224.069856 140.667582 
L 224.832673 139.793509 
L 225.595489 138.916616 
L 226.358305 138.036172 
L 227.121121 137.151429 
L 227.883937 136.261615 
L 228.646753 135.365937 
L 229.409569 134.463567 
L 230.172386 133.553643 
L 230.935202 132.635263 
L 231.698018 131.707478 
L 232.460834 130.769282 
L 233.22365 129.819611 
L 233.986466 128.857331 
L 234.749282 127.881224 
L 235.512098 126.889986 
L 236.274915 125.882206 
L 237.037731 124.856355 
L 237.800547 123.810769 
L 238.563363 122.743627 
L 239.326179 121.652927 
L 240.088995 120.53646 
L 240.851811 119.391774 
L 241.614627 118.216137 
L 242.377444 117.006481 
L 243.14026 115.75935 
L 243.903076 114.470822 
L 244.665892 113.136415 
L 245.428708 111.750979 
L 246.191524 110.30854 
L 246.95434 108.802121 
L 247.717157 107.223489 
L 248.479973 105.562835 
L 249.242789 103.808335 
L 250.005605 101.945553 
L 250.768421 99.956598 
L 251.531237 97.818926 
L 252.294053 95.503549 
L 253.056869 92.972322 
L 253.819686 90.173606 
L 254.582502 87.035027 
L 255.345318 83.450616 
L 256.108134 79.256119 
L 256.87095 74.176398 
L 257.633766 67.69571 
L 258.396582 58.656259 
" style="fill:none;stroke:#008000;stroke-linecap:square;stroke-width:1.5;"/>
   </g>
   <g id="line2d_3">
    <path clip-path="url(#ped3c1ddc85)" d="M 69.218182 230.256 
L 373.581818 56.73888 
L 373.581818 56.73888 
" style="fill:none;stroke:#000000;stroke-linecap:square;stroke-width:1.5;"/>
   </g>
   <g id="line2d_4">
    <path clip-path="url(#ped3c1ddc85)" d="M 54 143.28 
L 388.8 143.28 
" style="fill:none;stroke:#1f77b4;stroke-linecap:square;stroke-width:1.5;"/>
   </g>
   <g id="line2d_5">
    <path clip-path="url(#ped3c1ddc85)" d="M 221.781408 252 
L 221.781408 34.56 
" style="fill:none;stroke:#1f77b4;stroke-linecap:square;stroke-width:1.5;"/>
   </g>
  </g>
 </g>
 <defs>
  <clipPath id="ped3c1ddc85">
   <rect height="217.44" width="334.8" x="54" y="34.56"/>
  </clipPath>
 </defs>
</svg>
