<?xml version="1.0" encoding="utf-8" standalone="no"?>
<!DOCTYPE svg PUBLIC "-//W3C//DTD SVG 1.1//EN"
  "http://www.w3.org/Graphics/SVG/1.1/DTD/svg11.dtd">
<!-- Created with matplotlib (https://matplotlib.org/) -->
<svg height="288pt" version="1.1" viewBox="0 0 432 288" width="432pt" xmlns="http://www.w3.org/2000/svg" xmlns:xlink="http://www.w3.org/1999/xlink">
 <defs>
  <style type="text/css">
*{stroke-linecap:butt;stroke-linejoin:round;}
  </style>
 </defs>
 <g id="figure_1">
  <g id="patch_1">
   <path d="M 0 288 
L 432 288 
L 432 0 
L 0 0 
z
" style="fill:#ffffff;"/>
  </g>
  <g id="axes_1">
   <g id="line2d_1">
    <path clip-path="url(#pa87342375f)" d="M 103.111309 289 
L 104.449985 283.102162 
L 106.407308 275.226199 
L 108.36463 268.079609 
L 110.321953 261.560572 
L 112.279275 255.585328 
L 115.215259 247.493111 
L 118.151242 240.281334 
L 121.087226 233.802663 
L 124.02321 227.940684 
L 126.959193 222.602173 
L 129.895177 217.711586 
L 132.83116 213.20704 
L 135.767144 209.037342 
L 139.681789 203.925774 
L 143.596434 199.251152 
L 147.511079 194.946541 
L 151.425723 190.957411 
L 155.340368 187.238832 
L 160.233674 182.914677 
L 165.12698 178.894957 
L 170.998948 174.404461 
L 176.870915 170.212595 
L 183.721543 165.624945 
L 191.550833 160.693003 
L 200.358784 155.435952 
L 211.124057 149.283835 
L 246.355861 129.399613 
L 255.163812 124.050863 
L 262.01444 119.653448 
L 268.865069 114.979595 
L 274.737036 110.695006 
L 279.630342 106.882955 
L 284.523648 102.806598 
L 289.416954 98.414729 
L 293.331599 94.632283 
L 297.246244 90.56883 
L 301.160889 86.177258 
L 305.075533 81.400234 
L 308.011517 77.522658 
L 310.947501 73.35296 
L 313.883484 68.848414 
L 316.819468 63.957827 
L 319.755452 58.619316 
L 322.691435 52.757337 
L 325.627419 46.278666 
L 328.563403 39.066889 
L 330.520725 33.780575 
L 332.478047 28.050382 
L 334.43537 21.812746 
L 336.392692 14.991428 
L 338.350015 7.494189 
L 340.352844 -1 
L 340.352844 -1 
" style="fill:none;stroke:#0000ff;stroke-linecap:square;stroke-width:1.5;"/>
   </g>
   <g id="line2d_2">
    <path clip-path="url(#pa87342375f)" d="M 69.218182 197.681089 
L 80.962116 195.672639 
L 91.72739 193.622432 
L 102.492663 191.34374 
L 112.279275 189.047945 
L 122.065887 186.512444 
L 130.873838 184.003502 
L 139.681789 181.259148 
L 148.48974 178.26072 
L 156.31903 175.369075 
L 164.148319 172.255734 
L 171.977609 168.917022 
L 179.806899 165.35549 
L 188.614849 161.095865 
L 198.401462 156.084225 
L 209.166735 150.307389 
L 228.739959 139.480997 
L 242.441216 132.027904 
L 252.227828 126.939076 
L 261.035779 122.595673 
L 269.84373 118.512733 
L 277.67302 115.117795 
L 285.502309 111.948243 
L 293.331599 109.001793 
L 301.160889 106.271232 
L 309.96884 103.444171 
L 318.77679 100.858919 
L 327.584741 98.496017 
L 337.371353 96.107474 
L 347.157966 93.943226 
L 357.923239 91.792794 
L 369.667173 89.688841 
L 373.581818 89.037951 
L 373.581818 89.037951 
" style="fill:none;stroke:#008000;stroke-linecap:square;stroke-width:1.5;"/>
   </g>
   <g id="line2d_3">
    <path clip-path="url(#pa87342375f)" d="M 69.218182 228.0816 
L 373.581818 59.022 
L 373.581818 59.022 
" style="fill:none;stroke:#000000;stroke-linecap:square;stroke-width:1.5;"/>
   </g>
   <g id="line2d_4">
    <path clip-path="url(#pa87342375f)" d="M 221.889331 252 
L 221.889331 34.56 
" style="fill:none;stroke:#1f77b4;stroke-linecap:square;stroke-width:1.5;"/>
   </g>
   <g id="line2d_5">
    <path clip-path="url(#pa87342375f)" d="M 54 143.28 
L 388.8 143.28 
" style="fill:none;stroke:#1f77b4;stroke-linecap:square;stroke-width:1.5;"/>
   </g>
  </g>
 </g>
 <defs>
  <clipPath id="pa87342375f">
   <rect height="217.44" width="334.8" x="54" y="34.56"/>
  </clipPath>
 </defs>
</svg>
