<?xml version="1.0" encoding="utf-8" standalone="no"?>
<!DOCTYPE svg PUBLIC "-//W3C//DTD SVG 1.1//EN"
  "http://www.w3.org/Graphics/SVG/1.1/DTD/svg11.dtd">
<!-- Created with matplotlib (https://matplotlib.org/) -->
<svg height="288pt" version="1.1" viewBox="0 0 432 288" width="432pt" xmlns="http://www.w3.org/2000/svg" xmlns:xlink="http://www.w3.org/1999/xlink">
 <defs>
  <style type="text/css">
*{stroke-linecap:butt;stroke-linejoin:round;}
  </style>
 </defs>
 <g id="figure_1">
  <g id="patch_1">
   <path d="M 0 288 
L 432 288 
L 432 0 
L 0 0 
z
" style="fill:#ffffff;"/>
  </g>
  <g id="axes_1">
   <g id="line2d_1">
    <path clip-path="url(#peca6068613)" d="M 69.218182 44.443636 
L 81.515702 47.797692 
L 93.813223 51.391021 
L 104.573554 54.757857 
L 115.333884 58.360915 
L 124.557025 61.663312 
L 133.780165 65.193777 
L 143.003306 68.982455 
L 150.689256 72.372878 
L 158.375207 76.007099 
L 166.061157 79.93211 
L 172.209917 83.32042 
L 178.358678 86.972566 
L 184.507438 90.941139 
L 189.119008 94.175504 
L 193.730579 97.683051 
L 198.342149 101.535899 
L 201.416529 104.327907 
L 206.028099 108.992344 
L 209.102479 112.579423 
L 212.17686 116.631865 
L 213.71405 118.927061 
L 215.25124 121.476271 
L 216.78843 124.388199 
L 218.32562 127.836729 
L 219.86281 132.658784 
L 221.4 140.469381 
L 222.93719 143.051536 
L 224.47438 143.256671 
L 233.697521 143.279994 
L 373.581818 143.280006 
L 373.581818 143.280006 
" style="fill:none;stroke:#000000;stroke-dasharray:5.55,2.4;stroke-dashoffset:0;stroke-width:1.5;"/>
   </g>
   <g id="line2d_2">
    <path clip-path="url(#peca6068613)" d="M 69.218182 242.116364 
L 81.515702 238.762314 
L 93.813223 235.168961 
L 104.573554 231.802351 
L 115.333884 228.198898 
L 124.557025 224.896428 
L 133.780165 221.367441 
L 143.003306 217.57696 
L 150.689256 214.187951 
L 158.375207 210.551634 
L 166.061157 206.626731 
L 172.209917 203.241651 
L 178.358678 199.590696 
L 184.507438 195.61956 
L 189.119008 192.379343 
L 193.730579 188.875109 
L 198.342149 185.029136 
L 202.953719 180.744958 
L 206.028099 177.555244 
L 209.102479 173.976774 
L 210.639669 172.043214 
L 213.71405 167.624576 
L 215.25124 165.088442 
L 216.78843 162.173418 
L 218.32562 158.729437 
L 219.86281 153.814055 
L 221.4 145.548215 
L 222.93719 143.434762 
L 226.01157 143.281699 
L 338.226446 143.280006 
L 373.581818 143.279991 
L 373.581818 143.279991 
" style="fill:none;stroke:#000000;stroke-dasharray:5.55,2.4;stroke-dashoffset:0;stroke-width:1.5;"/>
   </g>
   <g id="line2d_3">
    <path clip-path="url(#peca6068613)" d="M 69.218182 143.28 
L 70.755372 143.28 
L 72.292562 143.28 
L 73.829752 143.28 
L 75.366942 143.28 
L 76.904132 143.28 
L 78.441322 143.28 
L 79.978512 143.279999 
L 81.515702 143.279999 
L 83.052893 143.28 
L 84.590083 143.28 
L 86.127273 143.28 
L 87.664463 143.279999 
L 89.201653 143.28 
L 90.738843 143.28 
L 92.276033 143.279999 
L 93.813223 143.279999 
L 95.350413 143.280001 
L 96.887603 143.279999 
L 98.424793 143.279999 
L 99.961983 143.279998 
L 101.499174 143.279997 
L 103.036364 143.279999 
L 104.573554 143.280002 
L 106.110744 143.279999 
L 107.647934 143.280002 
L 109.185124 143.279999 
L 110.722314 143.279998 
L 112.259504 143.279998 
L 113.796694 143.279998 
L 115.333884 143.279993 
L 116.871074 143.279999 
L 118.408264 143.279999 
L 119.945455 143.279998 
L 121.482645 143.280001 
L 123.019835 143.279999 
L 124.557025 143.279997 
L 126.094215 143.280001 
L 127.631405 143.280003 
L 129.168595 143.280002 
L 130.705785 143.279997 
L 132.242975 143.279998 
L 133.780165 143.279994 
L 135.317355 143.279995 
L 136.854545 143.279995 
L 138.391736 143.279998 
L 139.928926 143.279987 
L 141.466116 143.279996 
L 143.003306 143.280001 
L 144.540496 143.279998 
L 146.077686 143.280002 
L 147.614876 143.279998 
L 149.152066 143.279993 
L 150.689256 143.279998 
L 152.226446 143.280003 
L 153.763636 143.280004 
L 155.300826 143.280014 
L 156.838017 143.279993 
L 158.375207 143.279987 
L 159.912397 143.279998 
L 161.449587 143.279994 
L 162.986777 143.279994 
L 164.523967 143.27999 
L 166.061157 143.280023 
L 167.598347 143.279991 
L 169.135537 143.280004 
L 170.672727 143.280012 
L 172.209917 143.280017 
L 173.747107 143.279995 
L 175.284298 143.279992 
L 176.821488 143.279987 
L 178.358678 143.279994 
L 179.895868 143.279987 
L 181.433058 143.279988 
L 182.970248 143.280011 
L 184.507438 143.279993 
L 186.044628 143.279991 
L 187.581818 143.279988 
L 189.119008 143.279993 
L 190.656198 143.279991 
L 192.193388 143.280004 
L 193.730579 143.279987 
L 195.267769 143.279988 
L 196.804959 143.279973 
L 198.342149 143.279925 
L 199.879339 143.279883 
L 201.416529 143.279739 
L 202.953719 143.279627 
L 204.490909 143.279003 
L 206.028099 143.278667 
L 207.565289 143.273835 
L 209.102479 143.275111 
L 210.639669 143.261712 
L 212.17686 143.252004 
L 213.71405 143.19461 
L 215.25124 143.209641 
L 216.78843 143.038523 
L 218.32562 142.310621 
" style="fill:none;stroke:#000000;stroke-linecap:square;stroke-width:1.5;"/>
   </g>
   <g id="line2d_4">
    <path clip-path="url(#peca6068613)" d="M 221.4 252 
L 221.4 34.56 
" style="fill:none;stroke:#1f77b4;stroke-linecap:square;stroke-width:1.5;"/>
   </g>
  </g>
 </g>
 <defs>
  <clipPath id="peca6068613">
   <rect height="217.44" width="334.8" x="54" y="34.56"/>
  </clipPath>
 </defs>
</svg>
